<svg width="600" height="200" viewBox="0 0 600 200" fill="none" xmlns="http://www.w3.org/2000/svg">
<g clip-path="url(#clip0_201_2)">
<path fill-rule="evenodd" clip-rule="evenodd" d="M137.156 128.087C137.511 127.669 158.949 99.5039 155.699 67.073C154.757 57.6631 152.44 50.7358 148.7 45.6712C146.204 43.1413 143.53 40.7755 140.705 38.5846C134.558 35.053 126.539 33.4562 116.584 32.8975C101.32 32.0412 80.5689 35.6436 60.5788 54.4859C60.5788 54.4859 99.5634 32.5514 130.194 63.6879C160.825 96.9468 137.156 128.087 137.156 128.087Z" fill="#D59F35"/>
<path fill-rule="evenodd" clip-rule="evenodd" d="M148.72 45.6925C152.448 50.7571 154.757 57.6784 155.699 67.073C158.949 99.5039 137.511 127.669 137.156 128.087C137.156 128.087 155.857 120.112 168.072 121.78C170.131 114.862 171.233 107.553 171.233 100C171.233 78.9479 162.67 59.8257 148.72 45.6925ZM139.169 124.933C138.534 126.001 137.863 127.055 137.156 128.087C137.156 128.087 138.004 126.967 139.169 124.933Z" fill="#EDB536"/>
<path fill-rule="evenodd" clip-rule="evenodd" d="M163.225 134.067C160.867 134.57 158.443 135.22 155.949 136.048C125.544 147.387 134.538 169.421 99.013 178.198C99.013 178.198 99.1087 178.213 99.287 178.225C127.546 174.993 151.385 157.838 163.225 134.067Z" fill="#3E585D"/>
<path fill-rule="evenodd" clip-rule="evenodd" d="M9.84923 117.072C14.8323 124.473 34.3512 149.432 73.2791 153.567C119.864 158.512 133.267 129.229 164.405 131.571C164.024 132.407 163.635 133.24 163.226 134.063C160.867 134.564 158.443 135.22 155.949 136.048C132.565 144.769 130.234 163.137 115.904 172.736C111.181 174.871 105.174 177.053 98.3528 178.329C95.4685 178.627 92.5394 178.779 89.5736 178.779C50.5618 178.779 17.9339 152.368 9.84923 117.072Z" fill="#445C65"/>
<path fill-rule="evenodd" clip-rule="evenodd" d="M83.5288 21.4372C74.5051 24.9285 44.8606 39.4964 35.5925 82.777C35.4177 83.605 35.2441 84.4436 35.0847 85.294C34.9299 86.1019 34.7811 86.9286 34.6429 87.7519C27.5599 129.615 60.2103 147.567 76.7303 153.871C75.5965 153.789 74.452 153.692 73.2792 153.567C35.5701 149.561 16.0725 126.012 10.3583 117.814C9.97678 116.734 9.63781 115.677 9.33308 114.636C8.40828 109.893 7.91812 105 7.91812 100C7.91812 58.4627 41.2618 24.4254 83.5288 21.4372Z" fill="#83B5B4"/>
<path fill-rule="evenodd" clip-rule="evenodd" d="M83.5288 21.4372C74.5051 24.9285 44.8606 39.4964 35.5925 82.777C35.5595 83.5566 35.2914 84.3148 35.1248 85.0967H35.1213L35.1154 85.1357H35.1118L35.1083 85.1759L35.0988 85.216L35.0929 85.2562L35.0847 85.294L35.0764 85.3318L35.0693 85.3684L35.0634 85.4085L35.054 85.4463L35.048 85.483L35.041 85.5208L35.0339 85.5585L35.0256 85.5975L34.7669 87.0172L34.7634 87.0574L34.7551 87.0952L34.754 87.1058C37.6725 80.253 43.513 70.2407 55.1799 58.3824C58.3748 55.1343 61.8402 52.4154 65.5276 50.137C83.9457 35.0814 102.575 32.1109 116.584 32.8975C126.529 33.4562 134.543 35.0507 140.691 38.5716C126.697 27.7219 108.92 21.221 89.5736 21.221C87.5398 21.221 85.5236 21.2954 83.5288 21.4372Z" fill="#9ED1CF"/>
<path fill-rule="evenodd" clip-rule="evenodd" d="M221.388 157.117C221.388 157.117 199.024 119.916 155.167 133.802C124.761 145.629 134.538 169.04 99.013 178.195C99.013 178.195 118.007 180.549 143.417 159.887C168.827 139.221 209.38 148.817 221.388 157.117Z" fill="#3E585D"/>
<path d="M245 105.32C241.8 105.32 238.899 104.68 236.296 103.4C233.693 102.12 231.453 100.392 229.576 98.216C227.699 95.9973 226.248 93.5227 225.224 90.792C224.2 88.0187 223.688 85.1813 223.688 82.28C223.688 79.2507 224.221 76.3707 225.288 73.64C226.355 70.8667 227.848 68.4133 229.768 66.28C231.731 64.104 234.013 62.3973 236.616 61.16C239.219 59.88 242.035 59.24 245.064 59.24C248.264 59.24 251.165 59.9013 253.768 61.224C256.371 62.5467 258.589 64.3173 260.424 66.536C262.301 68.7547 263.752 71.2293 264.776 73.96C265.8 76.6907 266.312 79.4853 266.312 82.344C266.312 85.3733 265.779 88.2747 264.712 91.048C263.645 93.7787 262.152 96.232 260.232 98.408C258.312 100.541 256.051 102.227 253.448 103.464C250.845 104.701 248.029 105.32 245 105.32ZM228.168 82.28C228.168 84.7547 228.573 87.144 229.384 89.448C230.195 91.7093 231.347 93.736 232.84 95.528C234.333 97.2773 236.104 98.6853 238.152 99.752C240.243 100.776 242.525 101.288 245 101.288C247.603 101.288 249.928 100.755 251.976 99.688C254.067 98.5787 255.837 97.128 257.288 95.336C258.781 93.5013 259.912 91.4533 260.68 89.192C261.448 86.9307 261.832 84.6267 261.832 82.28C261.832 79.8053 261.427 77.4373 260.616 75.176C259.805 72.9147 258.632 70.888 257.096 69.096C255.603 67.304 253.832 65.896 251.784 64.872C249.736 63.848 247.475 63.336 245 63.336C242.44 63.336 240.115 63.8693 238.024 64.936C235.976 66.0027 234.205 67.4533 232.712 69.288C231.261 71.08 230.131 73.1067 229.32 75.368C228.552 77.6293 228.168 79.9333 228.168 82.28ZM293.255 105.32C289.671 105.32 286.641 104.68 284.167 103.4C281.692 102.12 279.729 100.413 278.279 98.28C276.828 96.104 275.761 93.6507 275.079 90.92C274.439 88.1893 274.119 85.3733 274.119 82.472V59.56H278.535V82.472C278.535 84.8187 278.769 87.1227 279.239 89.384C279.751 91.6453 280.561 93.672 281.671 95.464C282.78 97.256 284.273 98.6853 286.151 99.752C288.028 100.776 290.375 101.288 293.191 101.288C296.092 101.288 298.481 100.755 300.359 99.688C302.279 98.5787 303.772 97.128 304.839 95.336C305.948 93.544 306.737 91.5387 307.207 89.32C307.676 87.0587 307.911 84.776 307.911 82.472V59.56H312.391V82.472C312.391 85.5013 312.049 88.4027 311.367 91.176C310.684 93.9493 309.575 96.3813 308.039 98.472C306.545 100.563 304.583 102.227 302.151 103.464C299.719 104.701 296.753 105.32 293.255 105.32ZM335.276 59.56H339.052L357.932 105H353.196L347.308 90.792H326.892L321.068 105H316.268L335.276 59.56ZM346.284 87.272L337.132 64.808L327.852 87.272H346.284ZM364.446 105V59.56H368.926V101.032H395.166V105H364.446ZM432.287 101.032V105H401.759V59.56H431.711V63.528H406.239V79.912H428.447V83.688H406.239V101.032H432.287ZM467.069 68.072C466.429 67.3467 465.682 66.7067 464.829 66.152C463.975 65.5547 463.015 65.0427 461.949 64.616C460.882 64.1893 459.73 63.848 458.493 63.592C457.298 63.336 456.018 63.208 454.653 63.208C450.685 63.208 447.762 63.976 445.885 65.512C444.05 67.0053 443.133 69.0533 443.133 71.656C443.133 73.448 443.559 74.856 444.413 75.88C445.309 76.904 446.695 77.736 448.573 78.376C450.45 79.016 452.839 79.6773 455.741 80.36C458.983 81.0427 461.778 81.8533 464.125 82.792C466.471 83.7307 468.285 85.0107 469.565 86.632C470.845 88.2107 471.485 90.3653 471.485 93.096C471.485 95.1867 471.079 97 470.269 98.536C469.458 100.072 468.327 101.352 466.877 102.376C465.426 103.4 463.698 104.168 461.693 104.68C459.687 105.149 457.49 105.384 455.101 105.384C452.754 105.384 450.493 105.149 448.317 104.68C446.183 104.168 444.157 103.443 442.237 102.504C440.317 101.523 438.525 100.285 436.861 98.792L439.101 95.144C439.911 95.9973 440.871 96.808 441.981 97.576C443.133 98.3013 444.391 98.9627 445.757 99.56C447.165 100.157 448.658 100.627 450.237 100.968C451.858 101.267 453.522 101.416 455.229 101.416C458.855 101.416 461.671 100.755 463.677 99.432C465.725 98.1093 466.749 96.1467 466.749 93.544C466.749 91.6667 466.237 90.1733 465.213 89.064C464.189 87.912 462.653 86.9733 460.605 86.248C458.557 85.5227 456.039 84.8187 453.053 84.136C449.895 83.4107 447.229 82.6 445.053 81.704C442.877 80.808 441.234 79.6347 440.125 78.184C439.058 76.6907 438.525 74.728 438.525 72.296C438.525 69.48 439.207 67.112 440.573 65.192C441.981 63.2293 443.901 61.7573 446.333 60.776C448.765 59.752 451.559 59.24 454.717 59.24C456.722 59.24 458.578 59.4533 460.285 59.88C462.034 60.264 463.634 60.84 465.085 61.608C466.578 62.376 467.965 63.336 469.245 64.488L467.069 68.072ZM476.376 81.96C476.376 79.1867 476.845 76.4773 477.784 73.832C478.765 71.144 480.173 68.712 482.008 66.536C483.842 64.3173 486.104 62.568 488.792 61.288C491.48 59.9653 494.53 59.304 497.944 59.304C501.997 59.304 505.453 60.2427 508.312 62.12C511.213 63.9547 513.346 66.3227 514.712 69.224L511.192 71.4C510.21 69.3947 508.973 67.816 507.479 66.664C505.986 65.4693 504.386 64.616 502.68 64.104C501.016 63.592 499.352 63.336 497.688 63.336C494.957 63.336 492.546 63.8907 490.456 65C488.365 66.0667 486.594 67.5173 485.144 69.352C483.736 71.144 482.669 73.1707 481.944 75.432C481.218 77.6507 480.856 79.912 480.856 82.216C480.856 84.7333 481.282 87.144 482.135 89.448C482.989 91.752 484.184 93.8 485.72 95.592C487.256 97.3413 489.048 98.7493 491.096 99.816C493.186 100.84 495.448 101.352 497.88 101.352C499.586 101.352 501.336 101.053 503.128 100.456C504.92 99.8587 506.584 98.9413 508.12 97.704C509.698 96.4667 510.957 94.8667 511.896 92.904L515.608 94.824C514.669 97.0853 513.218 99.0053 511.256 100.584C509.293 102.163 507.096 103.357 504.664 104.168C502.274 104.979 499.928 105.384 497.624 105.384C494.509 105.384 491.65 104.723 489.048 103.4C486.445 102.035 484.184 100.243 482.264 98.024C480.386 95.7627 478.936 93.2453 477.911 90.472C476.888 87.656 476.376 84.8187 476.376 81.96ZM553.787 101.032V105H523.259V59.56H553.211V63.528H527.739V79.912H549.947V83.688H527.739V101.032H553.787Z" fill="#2B2A29"/>
<path fill-rule="evenodd" clip-rule="evenodd" d="M243.69 90.6659L248.809 90.6647L270.221 113.629L265.621 113.699L243.69 90.6659Z" fill="#2B2A29"/>
<path opacity="0.65" d="M242.276 124.28H244.164L253.604 147H251.236L248.292 139.896H238.084L235.172 147H232.772L242.276 124.28ZM247.78 138.136L243.204 126.904L238.564 138.136H247.78ZM256.069 140.12V130.328H258.245V139.736C258.245 141.635 258.565 143.053 259.205 143.992C259.867 144.931 260.837 145.4 262.117 145.4C262.971 145.4 263.792 145.219 264.581 144.856C265.392 144.472 266.107 143.939 266.725 143.256C267.344 142.552 267.813 141.741 268.133 140.824V130.328H270.309V144.376C270.309 144.675 270.373 144.899 270.501 145.048C270.629 145.176 270.821 145.251 271.077 145.272V147C270.821 147.021 270.619 147.032 270.469 147.032C270.32 147.053 270.181 147.064 270.053 147.064C269.627 147.021 269.253 146.851 268.933 146.552C268.635 146.253 268.475 145.891 268.453 145.464L268.389 143.224C267.664 144.504 266.672 145.507 265.413 146.232C264.176 146.957 262.832 147.32 261.381 147.32C259.632 147.32 258.309 146.712 257.413 145.496C256.517 144.28 256.069 142.488 256.069 140.12ZM283.389 146.2C283.219 146.264 282.952 146.381 282.589 146.552C282.227 146.723 281.789 146.872 281.277 147C280.765 147.128 280.211 147.192 279.613 147.192C278.995 147.192 278.408 147.075 277.853 146.84C277.32 146.605 276.893 146.253 276.573 145.784C276.253 145.293 276.093 144.696 276.093 143.992V132.056H273.789V130.328H276.093V124.696H278.269V130.328H282.109V132.056H278.269V143.384C278.312 143.981 278.525 144.429 278.909 144.728C279.315 145.027 279.773 145.176 280.285 145.176C280.883 145.176 281.427 145.08 281.917 144.888C282.408 144.675 282.707 144.525 282.813 144.44L283.389 146.2ZM293.091 147.32C291.896 147.32 290.787 147.096 289.763 146.648C288.76 146.179 287.886 145.549 287.139 144.76C286.414 143.949 285.848 143.032 285.443 142.008C285.038 140.963 284.835 139.864 284.835 138.712C284.835 137.517 285.038 136.408 285.443 135.384C285.848 134.339 286.424 133.421 287.171 132.632C287.918 131.821 288.792 131.192 289.795 130.744C290.819 130.275 291.928 130.04 293.123 130.04C294.318 130.04 295.416 130.275 296.419 130.744C297.422 131.192 298.296 131.821 299.043 132.632C299.79 133.421 300.366 134.339 300.771 135.384C301.176 136.408 301.379 137.517 301.379 138.712C301.379 139.864 301.176 140.963 300.771 142.008C300.366 143.032 299.79 143.949 299.043 144.76C298.318 145.549 297.443 146.179 296.419 146.648C295.416 147.096 294.307 147.32 293.091 147.32ZM287.043 138.744C287.043 139.981 287.31 141.112 287.843 142.136C288.398 143.139 289.134 143.939 290.051 144.536C290.968 145.112 291.982 145.4 293.091 145.4C294.2 145.4 295.214 145.101 296.131 144.504C297.048 143.907 297.784 143.096 298.339 142.072C298.894 141.027 299.171 139.896 299.171 138.68C299.171 137.443 298.894 136.312 298.339 135.288C297.784 134.264 297.048 133.453 296.131 132.856C295.214 132.259 294.2 131.96 293.091 131.96C291.982 131.96 290.968 132.269 290.051 132.888C289.155 133.507 288.43 134.328 287.875 135.352C287.32 136.355 287.043 137.485 287.043 138.744ZM329.978 147H327.802V137.688C327.802 135.747 327.493 134.317 326.874 133.4C326.255 132.483 325.338 132.024 324.122 132.024C322.863 132.024 321.733 132.472 320.73 133.368C319.749 134.264 319.055 135.416 318.65 136.824V147H316.474V137.688C316.474 135.725 316.175 134.296 315.578 133.4C314.981 132.483 314.063 132.024 312.826 132.024C311.589 132.024 310.469 132.461 309.466 133.336C308.463 134.211 307.759 135.363 307.354 136.792V147H305.178V130.328H307.162V134.104C307.866 132.803 308.762 131.8 309.85 131.096C310.959 130.392 312.186 130.04 313.53 130.04C314.917 130.04 316.037 130.435 316.89 131.224C317.743 132.013 318.266 133.048 318.458 134.328C319.226 132.92 320.143 131.853 321.21 131.128C322.298 130.403 323.525 130.04 324.89 130.04C325.829 130.04 326.618 130.211 327.258 130.552C327.919 130.893 328.442 131.384 328.826 132.024C329.231 132.643 329.519 133.4 329.69 134.296C329.882 135.171 329.978 136.152 329.978 137.24V147ZM333.4 142.2C333.4 141.155 333.699 140.259 334.296 139.512C334.894 138.744 335.715 138.157 336.76 137.752C337.827 137.325 339.054 137.112 340.44 137.112C341.251 137.112 342.094 137.176 342.968 137.304C343.843 137.432 344.622 137.624 345.304 137.88V136.472C345.304 135.064 344.888 133.944 344.056 133.112C343.224 132.28 342.072 131.864 340.6 131.864C339.704 131.864 338.819 132.035 337.944 132.376C337.091 132.696 336.195 133.176 335.256 133.816L334.424 132.28C335.512 131.533 336.579 130.979 337.624 130.616C338.67 130.232 339.736 130.04 340.824 130.04C342.872 130.04 344.494 130.627 345.688 131.8C346.883 132.973 347.48 134.595 347.48 136.664V144.376C347.48 144.675 347.544 144.899 347.672 145.048C347.8 145.176 348.003 145.251 348.28 145.272V147C348.046 147.021 347.843 147.043 347.672 147.064C347.502 147.085 347.374 147.085 347.288 147.064C346.755 147.043 346.35 146.872 346.072 146.552C345.795 146.232 345.646 145.891 345.624 145.528L345.592 144.312C344.846 145.272 343.875 146.019 342.68 146.552C341.486 147.064 340.27 147.32 339.032 147.32C337.966 147.32 336.995 147.096 336.12 146.648C335.267 146.179 334.595 145.56 334.104 144.792C333.635 144.003 333.4 143.139 333.4 142.2ZM344.568 143.48C344.803 143.181 344.984 142.893 345.112 142.616C345.24 142.339 345.304 142.093 345.304 141.88V139.448C344.579 139.171 343.822 138.957 343.032 138.808C342.264 138.659 341.486 138.584 340.696 138.584C339.139 138.584 337.88 138.893 336.92 139.512C335.96 140.131 335.48 140.973 335.48 142.04C335.48 142.659 335.64 143.245 335.96 143.8C336.28 144.333 336.75 144.781 337.368 145.144C337.987 145.485 338.712 145.656 339.544 145.656C340.59 145.656 341.56 145.453 342.456 145.048C343.374 144.643 344.078 144.12 344.568 143.48ZM360.217 146.2C360.046 146.264 359.78 146.381 359.417 146.552C359.054 146.723 358.617 146.872 358.105 147C357.593 147.128 357.038 147.192 356.441 147.192C355.822 147.192 355.236 147.075 354.681 146.84C354.148 146.605 353.721 146.253 353.401 145.784C353.081 145.293 352.921 144.696 352.921 143.992V132.056H350.617V130.328H352.921V124.696H355.097V130.328H358.937V132.056H355.097V143.384C355.14 143.981 355.353 144.429 355.737 144.728C356.142 145.027 356.601 145.176 357.113 145.176C357.71 145.176 358.254 145.08 358.745 144.888C359.236 144.675 359.534 144.525 359.641 144.44L360.217 146.2ZM370.014 147.32C368.82 147.32 367.71 147.096 366.686 146.648C365.662 146.179 364.777 145.549 364.03 144.76C363.284 143.949 362.697 143.021 362.27 141.976C361.865 140.931 361.662 139.811 361.662 138.616C361.662 137.059 362.014 135.629 362.718 134.328C363.444 133.027 364.436 131.992 365.694 131.224C366.953 130.435 368.382 130.04 369.982 130.04C371.625 130.04 373.054 130.435 374.27 131.224C375.508 132.013 376.478 133.059 377.182 134.36C377.886 135.64 378.238 137.048 378.238 138.584C378.238 138.755 378.238 138.925 378.238 139.096C378.238 139.245 378.228 139.363 378.206 139.448H363.934C364.041 140.643 364.372 141.709 364.926 142.648C365.502 143.565 366.238 144.301 367.134 144.856C368.052 145.389 369.044 145.656 370.11 145.656C371.198 145.656 372.222 145.379 373.182 144.824C374.164 144.269 374.846 143.544 375.23 142.648L377.118 143.16C376.777 143.949 376.254 144.664 375.55 145.304C374.846 145.944 374.014 146.445 373.054 146.808C372.116 147.149 371.102 147.32 370.014 147.32ZM363.87 137.88H376.19C376.105 136.664 375.774 135.597 375.198 134.68C374.644 133.763 373.908 133.048 372.99 132.536C372.094 132.003 371.102 131.736 370.014 131.736C368.926 131.736 367.934 132.003 367.038 132.536C366.142 133.048 365.406 133.773 364.83 134.712C364.276 135.629 363.956 136.685 363.87 137.88ZM405.784 145.016V147H390.52V124.28H405.496V126.264H392.76V134.456H403.864V136.344H392.76V145.016H405.784ZM414.067 147L407.315 130.328H409.587L415.283 144.824L421.011 130.328H423.155L416.403 147H414.067ZM432.967 147.32C431.772 147.32 430.663 147.096 429.639 146.648C428.615 146.179 427.73 145.549 426.983 144.76C426.236 143.949 425.65 143.021 425.223 141.976C424.818 140.931 424.615 139.811 424.615 138.616C424.615 137.059 424.967 135.629 425.671 134.328C426.396 133.027 427.388 131.992 428.647 131.224C429.906 130.435 431.335 130.04 432.935 130.04C434.578 130.04 436.007 130.435 437.223 131.224C438.46 132.013 439.431 133.059 440.135 134.36C440.839 135.64 441.191 137.048 441.191 138.584C441.191 138.755 441.191 138.925 441.191 139.096C441.191 139.245 441.18 139.363 441.159 139.448H426.887C426.994 140.643 427.324 141.709 427.879 142.648C428.455 143.565 429.191 144.301 430.087 144.856C431.004 145.389 431.996 145.656 433.063 145.656C434.151 145.656 435.175 145.379 436.135 144.824C437.116 144.269 437.799 143.544 438.183 142.648L440.071 143.16C439.73 143.949 439.207 144.664 438.503 145.304C437.799 145.944 436.967 146.445 436.007 146.808C435.068 147.149 434.055 147.32 432.967 147.32ZM426.823 137.88H439.143C439.058 136.664 438.727 135.597 438.151 134.68C437.596 133.763 436.86 133.048 435.943 132.536C435.047 132.003 434.055 131.736 432.967 131.736C431.879 131.736 430.887 132.003 429.991 132.536C429.095 133.048 428.359 133.773 427.783 134.712C427.228 135.629 426.908 136.685 426.823 137.88ZM453.028 132.248C451.577 132.291 450.297 132.696 449.188 133.464C448.1 134.232 447.332 135.288 446.884 136.632V147H444.708V130.328H446.756V134.328C447.332 133.155 448.089 132.205 449.028 131.48C449.988 130.755 451.001 130.349 452.068 130.264C452.281 130.243 452.463 130.232 452.612 130.232C452.783 130.232 452.921 130.243 453.028 130.264V132.248ZM457.047 152.12C457.346 152.141 457.634 152.152 457.911 152.152C458.188 152.173 458.391 152.163 458.519 152.12C458.775 152.077 459.02 151.928 459.255 151.672C459.49 151.416 459.767 150.925 460.087 150.2C460.407 149.475 460.855 148.408 461.431 147L454.167 130.328H456.471L462.583 144.76L468.215 130.328H470.391L461.751 151.832C461.602 152.237 461.378 152.611 461.079 152.952C460.78 153.315 460.407 153.592 459.959 153.784C459.532 153.997 458.999 154.115 458.359 154.136C458.167 154.157 457.964 154.157 457.751 154.136C457.559 154.136 457.324 154.115 457.047 154.072V152.12ZM481.591 146.2C481.42 146.264 481.153 146.381 480.791 146.552C480.428 146.723 479.991 146.872 479.479 147C478.967 147.128 478.412 147.192 477.815 147.192C477.196 147.192 476.609 147.075 476.055 146.84C475.521 146.605 475.095 146.253 474.775 145.784C474.455 145.293 474.295 144.696 474.295 143.992V132.056H471.991V130.328H474.295V124.696H476.471V130.328H480.311V132.056H476.471V143.384C476.513 143.981 476.727 144.429 477.111 144.728C477.516 145.027 477.975 145.176 478.487 145.176C479.084 145.176 479.628 145.08 480.119 144.888C480.609 144.675 480.908 144.525 481.015 144.44L481.591 146.2ZM498.485 147H496.309V137.688C496.309 135.811 495.979 134.403 495.317 133.464C494.656 132.504 493.707 132.024 492.469 132.024C491.659 132.024 490.848 132.237 490.037 132.664C489.248 133.069 488.544 133.635 487.925 134.36C487.328 135.064 486.901 135.875 486.645 136.792V147H484.469V123.64H486.645V134.104C487.307 132.867 488.224 131.885 489.397 131.16C490.592 130.413 491.861 130.04 493.205 130.04C494.165 130.04 494.976 130.211 495.637 130.552C496.32 130.893 496.864 131.395 497.269 132.056C497.696 132.696 498.005 133.453 498.197 134.328C498.389 135.181 498.485 136.152 498.485 137.24V147ZM503.286 147V130.328H505.462V147H503.286ZM503.286 126.84V123.64H505.462V126.84H503.286ZM524.43 147H522.254V137.688C522.254 135.725 521.966 134.296 521.39 133.4C520.814 132.483 519.908 132.024 518.67 132.024C517.817 132.024 516.974 132.237 516.142 132.664C515.31 133.069 514.574 133.635 513.934 134.36C513.316 135.064 512.868 135.875 512.59 136.792V147H510.414V130.328H512.398V134.104C512.846 133.293 513.433 132.589 514.158 131.992C514.884 131.373 515.705 130.893 516.622 130.552C517.54 130.211 518.489 130.04 519.47 130.04C520.388 130.04 521.166 130.211 521.806 130.552C522.446 130.893 522.958 131.384 523.342 132.024C523.726 132.643 524.004 133.4 524.174 134.296C524.345 135.171 524.43 136.152 524.43 137.24V147ZM535.919 147.224C534.788 147.224 533.743 146.989 532.783 146.52C531.823 146.051 530.991 145.421 530.287 144.632C529.604 143.821 529.071 142.904 528.687 141.88C528.303 140.856 528.111 139.8 528.111 138.712C528.111 137.539 528.292 136.44 528.655 135.416C529.039 134.371 529.572 133.443 530.255 132.632C530.959 131.821 531.78 131.192 532.719 130.744C533.657 130.275 534.703 130.04 535.855 130.04C537.284 130.04 538.521 130.403 539.567 131.128C540.633 131.853 541.529 132.749 542.255 133.816V130.328H544.207V147.064C544.207 148.6 543.833 149.891 543.087 150.936C542.361 152.003 541.369 152.803 540.111 153.336C538.873 153.869 537.519 154.136 536.047 154.136C534.148 154.136 532.612 153.795 531.439 153.112C530.265 152.429 529.305 151.512 528.559 150.36L529.903 149.304C530.564 150.349 531.439 151.128 532.527 151.64C533.636 152.152 534.809 152.408 536.047 152.408C537.135 152.408 538.127 152.205 539.023 151.8C539.94 151.416 540.665 150.829 541.199 150.04C541.753 149.251 542.031 148.259 542.031 147.064V143.768C541.391 144.813 540.516 145.656 539.407 146.296C538.297 146.915 537.135 147.224 535.919 147.224ZM536.527 145.4C537.188 145.4 537.817 145.283 538.415 145.048C539.033 144.813 539.599 144.504 540.111 144.12C540.623 143.715 541.049 143.267 541.391 142.776C541.732 142.285 541.945 141.784 542.031 141.272V136.12C541.711 135.309 541.252 134.595 540.655 133.976C540.057 133.336 539.375 132.845 538.607 132.504C537.86 132.141 537.081 131.96 536.271 131.96C535.332 131.96 534.489 132.163 533.743 132.568C533.017 132.952 532.399 133.475 531.887 134.136C531.396 134.776 531.012 135.501 530.735 136.312C530.457 137.123 530.319 137.933 530.319 138.744C530.319 139.64 530.479 140.493 530.799 141.304C531.119 142.093 531.556 142.808 532.111 143.448C532.687 144.067 533.348 144.547 534.095 144.888C534.863 145.229 535.673 145.4 536.527 145.4Z" fill="black"/>
</g>
<defs>
<clipPath id="clip0_201_2">
<rect width="600" height="200" fill="white"/>
</clipPath>
</defs>
</svg>
